<?xml version="1.0" standalone="no"?>
<!DOCTYPE svg PUBLIC "-//W3C//DTD SVG 20010904//EN"
 "http://www.w3.org/TR/2001/REC-SVG-20010904/DTD/svg10.dtd">
<svg version="1.0" xmlns="http://www.w3.org/2000/svg"
 width="1000.000000pt" height="1000.000000pt" viewBox="0 0 1000.000000 1000.000000"
 preserveAspectRatio="xMidYMid meet">
<metadata>
Created by potrace 1.14, written by Peter Selinger 2001-2017
</metadata>
<g transform="translate(0.000000,1000.000000) scale(0.100000,-0.100000)"
fill="#000000" stroke="none">
<path d="M7365 9513 c-519 -15 -1032 -203 -1442 -529 -420 -335 -748 -816
-890 -1307 -15 -53 -30 -97 -33 -97 -3 0 -15 37 -28 82 -119 424 -385 854
-730 1177 -405 380 -899 609 -1427 662 -187 19 -517 6 -679 -25 -345 -68 -632
-179 -913 -352 -628 -388 -1062 -1015 -1183 -1709 -31 -179 -38 -491 -15 -672
43 -338 132 -622 302 -958 226 -446 523 -834 1028 -1341 353 -353 677 -647
1260 -1138 784 -662 1247 -1095 1632 -1526 79 -88 259 -319 334 -426 207 -298
348 -592 380 -794 11 -72 18 -84 45 -78 14 2 22 21 34 83 70 347 321 767 749
1255 318 363 763 777 1566 1460 357 304 720 621 915 799 202 185 609 597 746
756 576 668 882 1276 959 1910 25 199 16 506 -19 693 -121 635 -481 1191
-1026 1583 -458 330 -1021 507 -1565 492z"/>
</g>
</svg>
